# xmcd
#
# Track frame offsets:
#	150
#	14337
#	31221
#	50634
#	67575
#	82922
#	95640
#	112737
#	126501
#	142129
#	155327
#	169436
#
# Disc length: 2433 seconds
#
# Revision: 1
# Processed by: cddbd v1.5.2PL0 Copyright (c) Steve Scherf et al.
# Submitted via: audiograbber 1.83.01
#
DISCID=9b097f0c
DTITLE=Stefan Martin - Halt mich fest
DYEAR=1997
DGENRE=Schlager
TTITLE0=Kurs auf die Liebe
TTITLE1=Tausendmal
TTITLE2=Du hast dein Herz
TTITLE3=Es ist nie zu spät
TTITLE4=Sperr deine Träume nicht ein
TTITLE5=Schenk mir deine Zärtlichkeit
TTITLE6=Hoffnung ist ein Stück von Eden
TTITLE7=Tausend Träume, tausend Tränen
TTITLE8=Am Golf von Almeria
TTITLE9=Mitten ins Herz
TTITLE10=Halt mich fest
TTITLE11=Hinterm Regenbogen
EXTD=
EXTT0=
EXTT1=
EXTT2=
EXTT3=
EXTT4=
EXTT5=
EXTT6=
EXTT7=
EXTT8=
EXTT9=
EXTT10=
EXTT11=
PLAYORDER=
